<?xml version="1.0" standalone="no"?>
<!DOCTYPE svg PUBLIC "-//W3C//DTD SVG 20010904//EN"
 "http://www.w3.org/TR/2001/REC-SVG-20010904/DTD/svg10.dtd">
<svg version="1.0" xmlns="http://www.w3.org/2000/svg"
 width="169.000000pt" height="298.000000pt" viewBox="0 0 169.000000 298.000000"
 preserveAspectRatio="xMidYMid meet">

<g transform="translate(0.000000,298.000000) scale(0.100000,-0.100000)"
fill="#000000" stroke="none">
<path d="M555 2935 c-27 -13 -59 -25 -70 -25 -50 -1 -159 -73 -188 -124 -6
-11 -14 -45 -17 -74 -5 -52 -7 -55 -42 -67 -21 -7 -40 -10 -43 -7 -2 3 -17 -8
-31 -23 -31 -33 -29 -65 11 -160 13 -33 25 -73 25 -90 0 -16 9 -50 20 -74 13
-27 20 -62 19 -91 -2 -33 4 -58 18 -81 11 -19 24 -51 27 -72 6 -33 13 -41 50
-58 61 -26 251 -62 289 -53 28 6 30 5 18 -9 -7 -9 -9 -22 -5 -28 4 -7 3 -9 -3
-6 -6 4 -16 0 -23 -8 -9 -11 -9 -15 -1 -15 7 0 9 -5 6 -10 -4 -6 -10 -8 -15
-5 -4 3 -11 -2 -14 -11 -3 -8 -2 -13 2 -11 4 2 24 11 45 21 20 9 35 21 32 26
-3 4 2 11 11 14 8 3 12 2 9 -4 -7 -12 47 11 56 23 3 5 9 2 12 -7 4 -10 1 -16
-8 -16 -10 0 -15 -10 -15 -31 0 -27 2 -30 15 -19 12 10 13 16 4 26 -6 8 -8 14
-3 14 21 -1 46 -57 73 -162 16 -62 31 -129 35 -148 3 -19 9 -52 14 -72 6 -21
8 -38 5 -38 -14 0 -43 23 -43 34 0 8 -7 16 -15 19 -11 5 -12 1 -5 -19 12 -32
12 -37 1 -29 -5 3 -12 1 -16 -5 -3 -5 1 -10 9 -10 9 0 16 -4 16 -10 0 -5 -4
-10 -10 -10 -5 0 -12 -11 -16 -25 -3 -14 -10 -25 -15 -25 -5 0 -12 -15 -17
-32 -9 -36 -36 -49 -46 -23 -3 9 -2 13 4 10 11 -7 33 32 25 45 -3 6 1 7 9 4
11 -4 16 0 16 10 0 9 5 16 10 16 15 0 12 32 -6 55 -12 17 -17 18 -35 7 -11 -7
-25 -10 -31 -6 -7 4 -8 3 -4 -5 4 -6 0 -25 -8 -42 -9 -17 -13 -36 -9 -42 3 -6
1 -7 -5 -3 -16 10 -15 42 3 59 8 8 11 17 8 21 -11 11 -23 6 -23 -8 0 -8 -5
-16 -12 -18 -8 -3 -9 -12 -1 -35 8 -20 8 -34 1 -41 -6 -6 -6 -12 1 -16 6 -4
11 -11 11 -16 0 -5 -17 2 -37 16 -21 14 -52 32 -70 41 -28 13 -31 18 -22 34 6
13 6 19 -1 19 -5 0 -10 8 -10 18 0 13 -10 8 -38 -21 -20 -20 -63 -59 -94 -87
-55 -47 -56 -49 -28 -47 17 1 28 7 26 12 -5 14 12 45 25 45 6 0 3 -7 -5 -16
-22 -22 -9 -40 14 -19 11 10 24 14 31 9 7 -4 10 -3 6 3 -3 5 8 17 26 25 27 13
36 13 50 3 11 -8 14 -14 7 -17 -6 -2 -8 -11 -5 -20 4 -11 13 -14 23 -10 14 5
15 3 4 -10 -8 -11 -24 -15 -45 -12 l-32 3 35 -13 c33 -12 33 -13 10 -19 -14
-4 -27 -1 -32 6 -5 8 -10 4 -15 -11 -5 -13 -13 -24 -18 -25 -20 -4 -12 -27 8
-28 19 -1 19 -2 3 -6 -10 -3 -32 -18 -48 -34 l-30 -28 33 10 c67 21 110 29
120 23 17 -10 -10 -33 -47 -40 -19 -3 -37 -10 -40 -15 -3 -5 -14 -9 -25 -9
-10 0 -19 -4 -19 -8 0 -5 -11 -14 -24 -20 -32 -14 -120 -129 -103 -135 21 -7
42 3 52 26 11 23 35 30 47 12 5 -7 11 -6 18 1 7 7 4 16 -11 30 -14 12 -19 13
-14 4 4 -8 5 -12 0 -8 -4 4 -17 1 -29 -7 -33 -24 -42 -17 -10 7 16 12 32 27
36 33 5 6 8 5 8 -4 0 -11 5 -10 20 4 16 15 25 16 44 7 21 -9 24 -8 24 14 0 13
-5 24 -10 24 -5 0 -7 -4 -3 -9 3 -6 -3 -9 -14 -8 -19 1 -19 2 -3 17 19 18 56
25 46 8 -4 -6 1 -8 16 -3 15 5 20 4 16 -4 -4 -6 -13 -11 -21 -11 -16 0 -16
-41 0 -52 5 -4 1 -8 -11 -8 -12 0 -24 -7 -28 -15 -3 -8 -12 -15 -20 -15 -7 0
-16 -9 -19 -20 -3 -11 -1 -20 4 -20 5 0 -9 -16 -31 -37 -23 -20 -46 -45 -51
-55 -9 -17 -8 -18 10 -9 11 6 23 16 26 21 4 6 15 8 25 5 13 -4 26 4 44 27 22
29 25 30 19 9 -4 -17 -1 -28 12 -37 16 -12 16 -14 3 -14 -9 0 -20 -9 -23 -21
-5 -14 -12 -18 -23 -14 -12 4 -14 3 -7 -4 7 -7 21 -8 40 -1 17 5 63 14 102 20
40 7 75 16 79 21 3 5 14 9 24 9 10 0 20 5 22 11 4 12 45 -5 59 -24 3 -4 30
-11 60 -14 53 -5 55 -7 86 -60 17 -29 44 -85 60 -123 15 -38 35 -71 44 -73 16
-4 39 -74 39 -119 0 -13 5 -29 10 -34 8 -8 49 -344 50 -406 0 -13 8 -18 31
-18 26 0 30 3 24 18 -6 15 -26 193 -40 362 -3 30 -16 102 -30 159 -13 58 -22
108 -19 112 2 4 0 19 -6 34 -15 40 -24 125 -12 125 5 0 29 -9 53 -19 49 -22
101 -21 233 4 37 7 76 35 76 55 0 16 62 139 76 151 8 6 14 17 14 25 0 7 14 36
30 64 17 28 30 53 30 56 0 8 52 77 73 96 17 15 17 17 -12 23 -17 4 -32 5 -34
3 -2 -2 -10 2 -18 9 -40 33 -110 44 -263 42 -38 0 -37 3 43 110 14 19 20 32
14 27 -7 -4 -13 -3 -13 3 0 5 5 11 12 13 9 3 9 6 0 12 -7 4 -12 3 -12 -3 0 -6
-6 -8 -14 -5 -8 3 -26 -2 -40 -11 -14 -10 -26 -13 -26 -8 0 10 47 37 65 38 6
0 16 7 23 15 7 8 12 11 11 5 -1 -5 2 -21 8 -34 7 -17 12 -21 17 -12 4 6 2 18
-4 26 -6 8 -9 19 -5 25 8 13 35 13 35 0 0 -5 -8 -6 -17 -3 -16 6 -16 5 -4 -11
13 -16 16 -15 37 10 39 44 17 52 -74 25 -23 -6 -47 -9 -53 -5 -6 3 -30 -8 -54
-25 -24 -17 -53 -31 -64 -31 -14 0 -23 -8 -27 -25 -3 -14 -13 -25 -23 -25 -12
0 -13 -2 -3 -9 12 -7 12 -12 1 -30 -8 -11 -18 -21 -23 -21 -4 0 -4 6 1 13 6 8
5 21 -3 37 -10 19 -14 20 -14 8 0 -34 -28 -19 -32 17 -3 29 3 44 15 33 2 -3
64 60 69 70 2 4 20 15 41 24 31 15 37 15 37 3 0 -22 40 -41 51 -24 5 8 9 20 9
27 0 21 19 13 33 -14 l13 -26 47 36 c43 33 77 39 77 15 0 -6 -10 -4 -22 2 -23
12 -23 12 -4 -9 10 -12 23 -19 27 -16 13 7 11 44 -2 44 -5 0 -7 5 -4 10 4 6
11 8 16 5 5 -4 9 0 9 9 0 8 6 17 13 20 6 4 1 4 -13 1 -14 -2 -37 -5 -51 -5
-14 0 -34 -7 -45 -15 -16 -13 -16 -14 -1 -9 26 9 21 -11 -8 -30 -30 -20 -35
-20 -35 -1 0 8 5 15 10 15 6 0 10 5 10 11 0 7 -9 9 -23 5 -30 -7 -39 9 -72
128 -14 54 -32 105 -38 112 -7 8 -18 21 -24 29 -7 7 -13 21 -13 29 0 9 -4 16
-9 16 -5 0 -12 20 -15 45 -4 25 -11 45 -17 45 -5 0 -9 15 -10 33 l0 32 -20
-45 c-11 -25 -21 -68 -22 -96 -1 -29 -5 -48 -8 -42 -3 5 -12 -11 -18 -35 -7
-24 -29 -62 -49 -84 -55 -61 -79 -89 -83 -99 -9 -20 -54 -84 -60 -84 -6 0 -34
102 -74 267 -14 55 -9 63 34 63 10 0 36 18 59 40 22 22 50 40 61 40 21 0 103
53 153 98 16 15 24 30 21 40 -5 11 -2 13 8 7 8 -4 2 4 -13 19 -30 28 -39 47
-13 26 13 -10 19 -9 38 6 12 10 16 12 10 4 -7 -8 -13 -20 -13 -27 0 -7 23 10
51 37 28 28 58 50 65 50 19 0 18 10 -3 26 -17 13 -17 14 0 8 13 -5 16 -2 11
10 -3 9 -13 16 -21 16 -8 0 -12 4 -9 9 9 13 -31 44 -45 35 -7 -4 -4 6 8 22 54
77 56 152 9 249 -19 39 -37 81 -40 95 -3 14 -22 45 -42 68 -35 41 -39 43 -84
41 -40 -2 -53 2 -85 29 -40 32 -81 44 -180 48 -67 3 -91 7 -101 17 -16 16
-101 6 -149 -18z m-76 -308 c7 -10 7 -17 0 -24 -8 -8 -8 -13 0 -17 6 -4 11
-12 11 -17 0 -6 -4 -7 -10 -4 -5 3 -3 -13 5 -36 20 -56 18 -62 -6 -16 -11 22
-19 53 -18 71 2 17 0 37 -5 44 -10 16 9 15 23 -1z m-242 -49 c-3 -8 -6 -5 -6
6 -1 11 2 17 5 13 3 -3 4 -12 1 -19z m-60 6 c-3 -3 -12 -4 -19 -1 -8 3 -5 6 6
6 11 1 17 -2 13 -5z m60 -66 c-3 -8 -6 -5 -6 6 -1 11 2 17 5 13 3 -3 4 -12 1
-19z m608 -178 c-3 -5 -14 -10 -23 -10 -15 0 -15 2 -2 10 20 13 33 13 25 0z
m-62 -17 c-7 -2 -19 -2 -25 0 -7 3 -2 5 12 5 14 0 19 -2 13 -5z m354 -150 c-4
-3 -2 -12 4 -20 7 -8 8 -13 1 -13 -12 0 -23 26 -15 34 4 3 9 6 11 6 3 0 2 -3
-1 -7z m-163 -58 c-4 -8 -10 -12 -15 -9 -14 8 -10 24 6 24 9 0 12 -6 9 -15z
m163 -248 c-2 -7 0 -24 4 -39 7 -25 5 -27 -10 -19 -36 20 -44 38 -24 59 19 20
37 19 30 -1z m-27 -117 c0 -5 -7 -10 -15 -10 -8 0 -15 5 -15 10 0 6 7 10 15
10 8 0 15 -4 15 -10z m25 -10 c3 -5 1 -10 -4 -10 -6 0 -11 5 -11 10 0 6 2 10
4 10 3 0 8 -4 11 -10z m15 -65 c0 -19 -4 -35 -10 -35 -5 0 -9 16 -7 35 3 45
17 45 17 0z m100 -9 c0 -3 -4 -8 -10 -11 -5 -3 -10 -1 -10 4 0 6 5 11 10 11 6
0 10 -2 10 -4z m211 -39 c-7 -7 -14 -8 -21 -1 -6 6 -2 10 12 11 16 2 18 -1 9
-10z m-324 -49 c-3 -8 -6 -5 -6 6 -1 11 2 17 5 13 3 -3 4 -12 1 -19z m173 -72
c0 -2 -7 -7 -16 -10 -8 -3 -12 -2 -9 4 6 10 25 14 25 6z m54 -51 c3 -8 -2 -22
-11 -30 -13 -13 -17 -14 -24 -3 -13 20 -11 28 8 21 12 -5 15 -2 10 10 -3 9 -2
17 2 17 5 0 11 -7 15 -15z m-610 -10 c-4 -8 -8 -15 -10 -15 -2 0 -4 7 -4 15 0
8 4 15 10 15 5 0 7 -7 4 -15z m-224 -25 c0 -5 -5 -10 -11 -10 -5 0 -8 -4 -4
-9 3 -6 -3 -14 -13 -20 -14 -7 -19 -6 -19 4 0 8 7 11 16 7 14 -5 14 -3 3 10
-10 13 -10 17 0 21 21 9 28 8 28 -3z m790 -18 c0 -15 -2 -15 -10 -2 -13 20
-13 33 0 25 6 -3 10 -14 10 -23z m-245 -12 c3 -5 1 -10 -6 -10 -7 0 -9 -8 -6
-21 5 -20 5 -20 -14 -3 -14 13 -16 20 -8 31 14 16 25 17 34 3z m225 6 c0 -9
-30 -14 -35 -6 -4 6 3 10 14 10 12 0 21 -2 21 -4z m-836 -31 c-4 -8 -10 -12
-15 -9 -11 6 -2 24 11 24 5 0 7 -7 4 -15z m644 3 c-2 -6 -10 -14 -16 -16 -7
-2 -10 2 -6 12 7 18 28 22 22 4z m92 -18 c0 -5 -2 -10 -4 -10 -3 0 -8 5 -11
10 -3 6 -1 10 4 10 6 0 11 -4 11 -10z m-172 -44 c-3 -46 -12 -52 -21 -14 -2
13 -8 31 -12 41 -5 13 -2 17 14 17 19 0 21 -5 19 -44z m152 23 c0 -6 -4 -7
-10 -4 -5 3 -10 11 -10 16 0 6 5 7 10 4 6 -3 10 -11 10 -16z m-216 -56 c-1
-32 -3 -68 -3 -81 -1 -13 -5 -20 -11 -17 -5 3 -10 1 -10 -4 0 -6 4 -11 8 -11
5 0 7 -13 4 -29 -2 -16 1 -32 7 -35 6 -4 11 -13 11 -19 0 -7 -4 -6 -10 3 -7
11 -8 6 -4 -17 8 -39 -1 -41 -33 -11 -32 30 -30 95 2 68 8 -7 12 -5 12 5 0 8
-4 12 -8 9 -16 -9 -19 17 -13 96 6 70 10 83 28 90 12 5 21 9 22 9 0 1 -1 -25
-2 -56z m-245 22 c5 2 13 -7 20 -22 12 -26 12 -26 -11 -11 -13 9 -24 24 -25
34 -2 11 0 13 3 6 3 -6 9 -10 13 -7z m448 -12 c-9 -9 -19 -14 -23 -11 -10 10
6 28 24 28 15 0 15 -1 -1 -17z m34 -16 c-10 -9 -11 -8 -5 6 3 10 9 15 12 12 3
-3 0 -11 -7 -18z m-604 7 c-3 -3 -12 -4 -19 -1 -8 3 -5 6 6 6 11 1 17 -2 13
-5z m516 -43 c-4 -15 -8 -19 -13 -10 -5 6 -3 18 3 24 16 17 17 14 10 -14z
m-463 9 c-8 -5 -19 -10 -25 -10 -5 0 -3 5 5 10 8 5 20 10 25 10 6 0 3 -5 -5
-10z m-40 -20 c0 -5 -4 -10 -9 -10 -6 0 -13 5 -16 10 -3 6 1 10 9 10 9 0 16
-4 16 -10z m525 1 c3 -5 1 -12 -5 -16 -5 -3 -10 1 -10 9 0 18 6 21 15 7z
m-595 -22 c0 -6 -4 -7 -10 -4 -5 3 -10 11 -10 16 0 6 5 7 10 4 6 -3 10 -11 10
-16z m265 11 c-3 -5 -10 -10 -16 -10 -5 0 -9 5 -9 10 0 6 7 10 16 10 8 0 12
-4 9 -10z m236 -28 c-14 -26 -14 -35 -1 -27 7 4 7 -2 0 -19 -13 -36 -33 -66
-44 -66 -14 0 1 68 25 106 22 36 39 41 20 6z m-170 -17 c28 -6 28 -5 22 -38
l-6 -28 -33 32 c-18 18 -31 36 -28 41 3 4 10 6 15 3 5 -4 19 -8 30 -10z m549
-45 c0 -5 -5 -10 -11 -10 -5 0 -7 5 -4 10 3 6 8 10 11 10 2 0 4 -4 4 -10z
m-502 -89 c3 -8 -1 -12 -9 -9 -7 2 -15 10 -17 17 -3 8 1 12 9 9 7 -2 15 -10
17 -17z m46 -73 c10 -39 6 -44 -14 -19 -23 27 -25 41 -6 41 7 0 16 -10 20 -22z
m-400 -13 c-4 -8 -10 -12 -15 -9 -11 6 -2 24 11 24 5 0 7 -7 4 -15z m-44 -15
c0 -5 -5 -10 -11 -10 -5 0 -7 5 -4 10 3 6 8 10 11 10 2 0 4 -4 4 -10z m474
-52 c3 -7 7 -33 10 -56 6 -39 4 -44 -14 -49 -13 -3 -19 -11 -16 -19 10 -26
-13 -14 -38 19 -31 40 -32 54 -8 61 11 4 25 18 32 31 15 27 28 32 34 13z"/>
<path d="M943 1295 c-3 -9 -3 -18 -1 -21 3 -3 8 4 11 16 6 23 -1 27 -10 5z"/>
<path d="M1010 1139 c0 -5 5 -7 10 -4 6 3 10 8 10 11 0 2 -4 4 -10 4 -5 0 -10
-5 -10 -11z"/>
<path d="M756 1678 c3 -5 9 -7 12 -4 3 3 12 0 21 -6 13 -10 14 -10 4 2 -15 16
-46 23 -37 8z"/>
<path d="M776 1647 c3 -10 9 -15 12 -12 3 3 0 11 -7 18 -10 9 -11 8 -5 -6z"/>
<path d="M745 1630 c-3 -5 -1 -10 4 -10 6 0 11 5 11 10 0 6 -2 10 -4 10 -3 0
-8 -4 -11 -10z"/>
<path d="M666 1580 c-26 -28 -58 -57 -71 -66 -14 -9 -22 -21 -18 -28 3 -6 3
-8 -2 -4 -10 10 -35 -10 -35 -28 0 -15 26 -9 52 13 10 9 22 12 30 7 10 -6 10
-4 -1 9 -7 9 -18 14 -24 10 -5 -3 -7 -1 -4 5 4 5 17 8 29 4 13 -3 19 -1 15 5
-4 6 0 16 8 23 8 7 12 16 9 21 -3 5 3 6 12 2 12 -4 15 -3 10 6 -5 8 3 24 20
42 15 16 25 29 22 29 -3 0 -26 -23 -52 -50z"/>
<path d="M820 1575 c-9 -10 -9 -15 -1 -15 6 0 11 -10 11 -22 0 -13 5 -30 11
-38 8 -11 9 -6 4 20 -4 19 -7 43 -7 53 1 21 -2 21 -18 2z"/>
<path d="M1202 1542 c2 -9 -3 -16 -9 -14 -15 2 -17 -14 -3 -23 6 -3 10 -1 10
5 0 6 4 9 9 6 5 -3 11 3 14 13 3 12 -1 22 -10 25 -9 4 -13 0 -11 -12z"/>
<path d="M670 1529 c0 -8 7 -24 16 -35 14 -18 15 -18 8 6 -8 31 -24 50 -24 29z"/>
<path d="M780 1480 c0 -5 5 -10 10 -10 6 0 10 5 10 10 0 6 -4 10 -10 10 -5 0
-10 -4 -10 -10z"/>
<path d="M636 1464 c-4 -11 -1 -14 11 -12 9 2 18 9 21 16 6 18 -25 15 -32 -4z"/>
<path d="M625 1410 c-3 -5 -1 -10 4 -10 6 0 11 5 11 10 0 6 -2 10 -4 10 -3 0
-8 -4 -11 -10z"/>
<path d="M610 1382 c0 -6 9 -16 20 -22 16 -9 20 -8 20 6 0 10 -3 14 -7 11 -3
-4 -12 -2 -20 4 -9 8 -13 8 -13 1z"/>
<path d="M237 1149 c7 -7 15 -10 18 -7 3 3 -2 9 -12 12 -14 6 -15 5 -6 -5z"/>
<path d="M285 1129 c-4 -6 -14 -8 -22 -4 -13 4 -14 3 -3 -10 7 -8 16 -13 20
-10 5 3 11 -1 14 -7 3 -7 3 -3 0 10 -6 26 11 30 25 5 6 -10 11 -13 11 -7 0 11
-20 34 -31 34 -4 0 -11 -5 -14 -11z"/>
<path d="M359 1103 c-13 -17 -13 -17 6 -3 11 8 22 16 24 17 2 2 0 3 -6 3 -6 0
-17 -8 -24 -17z"/>
<path d="M269 921 c-1 -3 0 -10 1 -16 1 -5 -2 -7 -6 -3 -8 9 -125 -73 -168
-117 -16 -16 -43 -40 -60 -52 -16 -13 -25 -23 -20 -23 6 0 15 5 20 10 7 7 19
8 37 1 30 -12 60 -3 65 18 2 9 -4 12 -18 8 -11 -3 -18 -1 -14 4 3 5 16 9 30 9
16 0 24 6 24 18 0 15 -2 15 -11 2 -9 -13 -10 -13 -6 0 2 9 13 14 25 12 28 -4
64 16 56 30 -5 7 -2 9 9 5 9 -3 19 -2 22 3 4 6 18 10 33 10 27 1 62 20 62 35
0 4 -7 2 -15 -5 -10 -8 -15 -9 -15 -2 0 6 8 16 18 21 9 6 12 11 6 11 -6 0 -17
-6 -23 -14 -13 -15 -51 -28 -51 -17 0 4 7 16 15 27 18 24 19 31 0 31 -8 0 -16
-3 -16 -6z m-32 -60 c0 -11 -5 -18 -9 -15 -4 3 -5 11 -1 19 7 21 12 19 10 -4z
m-33 -32 c-3 -5 -10 -7 -15 -3 -5 3 -7 10 -3 15 3 5 10 7 15 3 5 -3 7 -10 3
-15z"/>
<path d="M457 856 c-4 -10 -5 -21 -2 -24 9 -9 17 6 13 25 -3 17 -4 17 -11 -1z"/>
<path d="M409 783 c-13 -17 -13 -17 6 -3 11 8 22 16 24 17 2 2 0 3 -6 3 -6 0
-17 -8 -24 -17z"/>
<path d="M260 780 c0 -5 5 -10 11 -10 5 0 7 5 4 10 -3 6 -8 10 -11 10 -2 0 -4
-4 -4 -10z"/>
<path d="M310 779 c0 -5 5 -7 10 -4 6 3 10 8 10 11 0 2 -4 4 -10 4 -5 0 -10
-5 -10 -11z"/>
<path d="M359 776 c9 -11 -1 -13 -61 -10 -52 2 -80 -2 -102 -14 -17 -9 -34
-15 -39 -14 -4 1 -7 -2 -7 -8 0 -5 7 -10 15 -10 8 0 15 4 15 10 0 5 6 7 13 4
25 -9 106 -10 100 -1 -3 5 3 6 15 3 12 -4 34 0 52 9 26 13 29 19 19 31 -6 8
-16 14 -21 14 -6 0 -6 -5 1 -14z"/>
</g>
</svg>
