<?xml version="1.0" standalone="yes"?>
<svg xmlns="http://www.w3.org/2000/svg" width="3000" height="3000">
<path style="fill:#ffffff; stroke:none;" d="M0 0L0 3000L3000 3000L3000 0L0 0z"/>
<path style="fill:#ff8b01; stroke:none;" d="M1546 19L1546 366L1489 366L1489 384L1472 384L1472 453L1219 453L1219 732L1121 732L1121 750L1104 750L1104 886L917 886L917 1091L811 1091L811 1098L753 1098L753 1116L736 1116L736 1151L499 1151L499 1464L471 1464L471 1830L530 1830L530 2043L736 2043L736 2161L1104 2161L1104 2187L1472 2187L1472 2179L1840 2179L1840 2127L2208 2127L2208 2045L2477 2045L2477 1830L2557 1830L2556 1098L2470 1098L2470 772L2228 772L2228 1098L2109 1098L2109 732L2054 732L2054 366L1902 366L1902 256L1840 256L1840 19L1546 19z"/>
<path style="fill:#010101; stroke:none;" d="M811 886L811 1091L917 1091L917 886L811 886M2208 2212L2208 2246L1840 2246L1840 2304L1472 2304L1472 2334L1104 2334L1104 2285L736 2285L736 2265L492 2265L492 2534L736 2534L736 2613L388 2613L388 2928L415 2928L415 2975L736 2975L736 2934L749 2934L749 2928L1104 2928L1104 2787L1472 2787L1472 2773L1840 2773L1840 2853L2208 2853L2208 2893L2576 2893L2576 2813L2588 2813L2588 2690L2576 2690L2576 2566L2208 2566L2208 2476L2555 2476L2555 2212L2208 2212z"/>
</svg>
