<?xml version="1.0" standalone="no"?>
<!DOCTYPE svg PUBLIC "-//W3C//DTD SVG 20010904//EN"
 "http://www.w3.org/TR/2001/REC-SVG-20010904/DTD/svg10.dtd">
<svg version="1.0" xmlns="http://www.w3.org/2000/svg"
 width="600.000000pt" height="600.000000pt" viewBox="0 0 600.000000 600.000000"
 preserveAspectRatio="xMidYMid meet">

<g transform="translate(0.000000,600.000000) scale(0.100000,-0.100000)"
fill="#000000" stroke="none">
<path d="M0 3000 l0 -3000 3000 0 3000 0 0 3000 0 3000 -3000 0 -3000 0 0
-3000z m3322 2945 c600 -63 1193 -332 1639 -742 544 -499 881 -1159 970 -1898
19 -155 16 -499 -5 -655 -69 -510 -238 -947 -527 -1360 -359 -512 -936 -926
-1551 -1113 -446 -136 -976 -174 -1354 -98 -590 120 -1124 393 -1527 781 -498
479 -785 1055 -883 1770 -24 174 -24 575 0 755 51 378 154 706 323 1025 222
419 611 836 1013 1084 571 353 1268 519 1902 451z"/>
<path d="M3372 5888 c3 -7 38 -37 79 -65 40 -29 88 -69 106 -88 33 -36 53 -44
53 -22 0 14 40 37 64 37 7 0 31 -49 55 -109 39 -100 47 -114 98 -157 49 -42
83 -93 83 -124 0 -5 -16 -10 -35 -10 -36 0 -105 49 -105 75 0 30 -93 64 -165
60 -22 -1 -89 -6 -150 -10 -141 -9 -159 -2 -175 62 -7 26 -14 69 -17 96 -3 31
-11 51 -22 57 -33 17 -256 11 -344 -10 -45 -10 -112 -26 -149 -35 -36 -8 -106
-29 -155 -46 -95 -32 -275 -89 -302 -94 -9 -2 -27 -6 -41 -9 -14 -3 -45 -8
-70 -10 -111 -12 -355 -64 -454 -97 -82 -27 -229 -105 -264 -141 -18 -17 -31
-42 -35 -65 -3 -21 -8 -46 -12 -55 -6 -15 -2 -18 27 -18 35 0 68 -24 68 -49 0
-26 -61 -130 -87 -149 -15 -10 -61 -37 -102 -58 -105 -56 -197 -150 -247 -253
-38 -79 -56 -97 -68 -66 -8 21 -36 18 -66 -5 -14 -11 -40 -20 -57 -20 -29 0
-33 3 -33 25 0 90 208 360 320 415 36 18 98 66 129 100 9 10 -20 50 -35 50
-27 0 -186 -87 -239 -131 -73 -61 -280 -197 -309 -205 -57 -14 -174 -175 -289
-394 -149 -286 -248 -580 -293 -875 -15 -94 -19 -179 -19 -390 0 -267 0 -271
27 -345 33 -94 80 -193 134 -286 23 -40 59 -116 79 -170 68 -182 155 -321 290
-462 94 -99 181 -170 247 -201 28 -13 56 -36 68 -57 32 -51 113 -105 160 -106
49 0 147 55 229 128 12 12 41 27 63 33 22 7 46 15 54 18 23 9 17 -35 -10 -70
-57 -75 -70 -160 -37 -232 82 -180 349 -334 523 -301 38 7 44 17 88 150 14 44
31 81 37 83 6 2 18 -35 29 -88 18 -88 20 -94 58 -121 36 -26 47 -29 106 -26
59 3 65 5 68 26 4 24 55 68 87 74 27 4 53 84 36 107 -19 27 -51 102 -51 121 0
23 19 30 80 30 26 0 87 7 136 17 49 9 104 17 123 17 30 1 47 15 135 104 56 57
107 116 114 133 16 38 1 143 -25 172 -10 11 -27 30 -38 43 -39 43 -59 121 -65
259 -4 94 -11 139 -23 162 -9 18 -17 39 -17 48 0 8 -7 15 -16 15 -23 0 -113
70 -120 93 -10 31 -59 74 -159 138 -94 60 -121 93 -109 133 10 35 46 66 74 66
92 0 109 23 65 88 -31 46 -31 48 2 59 21 7 39 5 72 -10 35 -15 60 -18 121 -15
99 6 152 34 195 102 26 43 30 59 30 120 -1 58 -7 84 -33 143 -18 39 -32 82
-32 96 0 34 68 68 199 101 128 32 147 44 162 98 14 55 22 70 40 78 8 4 24 12
36 18 56 29 98 4 108 -63 27 -175 101 -223 376 -244 135 -10 187 -21 201 -44
13 -19 58 -171 58 -193 0 -32 69 -91 133 -113 31 -11 67 -27 79 -35 28 -20 69
-20 115 -1 20 8 37 14 38 13 1 -2 6 -64 12 -138 9 -128 11 -139 49 -214 43
-87 105 -156 140 -156 12 0 45 19 73 43 72 61 95 73 124 60 25 -12 27 -19 47
-155 7 -45 15 -63 37 -82 25 -22 29 -23 35 -8 4 9 7 41 7 70 2 98 44 154 112
151 33 -1 96 8 109 16 12 7 172 -21 210 -37 78 -33 130 -100 145 -185 10 -65
-21 -195 -61 -252 -18 -25 -51 -75 -74 -111 -22 -36 -65 -94 -95 -130 -30 -36
-71 -94 -92 -129 -20 -35 -42 -69 -48 -75 -6 -6 -43 -60 -84 -119 -60 -89 -71
-111 -60 -123 10 -12 4 -31 -34 -107 -32 -63 -50 -114 -57 -161 -32 -207 -141
-384 -319 -516 -114 -85 -158 -140 -111 -140 11 0 20 4 20 10 0 5 26 23 59 39
32 17 65 36 72 43 27 26 112 88 121 88 5 0 35 23 66 52 90 81 442 440 442 449
0 5 27 45 60 89 230 311 412 724 495 1127 78 372 79 829 3 1183 -82 386 -206
694 -399 987 -195 295 -407 529 -666 736 -40 32 -73 62 -73 67 0 6 -9 10 -19
10 -11 0 -42 18 -70 40 -28 22 -53 40 -57 40 -6 0 -197 113 -284 169 -14 8
-29 14 -34 13 -4 -2 -18 3 -30 11 -11 7 -46 21 -76 31 -30 10 -66 25 -80 34
-14 9 -32 17 -40 17 -29 3 -100 28 -100 35 0 4 -12 10 -27 13 -16 3 -77 20
-138 37 -60 18 -141 36 -180 40 -38 5 -97 14 -130 19 -77 14 -88 14 -83 -1z
m726 -437 c3 -8 -1 -12 -9 -9 -7 2 -15 10 -17 17 -3 8 1 12 9 9 7 -2 15 -10
17 -17z m-1324 -37 c38 -15 -6 -80 -60 -90 -58 -11 -64 9 -17 56 42 41 50 45
77 34z m232 -50 c3 -19 2 -57 -3 -84 -6 -27 -6 -55 -2 -62 5 -7 9 -23 9 -34 0
-12 7 -27 15 -34 20 -17 19 -70 -3 -96 -26 -31 -68 -54 -99 -54 -15 0 -56 -19
-91 -41 -64 -41 -102 -87 -102 -124 0 -36 -28 -65 -64 -65 -18 0 -39 6 -48 13
-22 16 -71 125 -72 160 -1 20 -5 26 -16 21 -69 -29 -67 -29 -98 4 -28 30 -35
32 -96 32 -93 0 -148 29 -215 114 -63 81 -96 99 -166 93 -41 -3 -63 -12 -106
-44 -30 -23 -69 -48 -88 -58 -35 -17 -151 -34 -151 -21 0 4 7 20 15 37 28 54
273 162 405 178 135 17 172 14 273 -23 51 -19 112 -40 137 -47 25 -7 50 -16
57 -21 6 -5 22 -7 35 -4 12 3 46 8 75 11 80 7 151 39 257 115 54 39 107 70
117 70 13 0 20 -10 25 -36z m1327 6 c50 -34 102 -89 132 -141 19 -35 55 -119
55 -131 0 -17 -34 -38 -62 -38 -30 0 -31 -1 -14 -19 25 -27 13 -73 -31 -122
-27 -29 -42 -39 -61 -37 -23 3 -29 -4 -49 -52 -27 -64 -25 -104 8 -157 18 -29
24 -33 33 -22 6 8 31 15 56 17 25 1 69 10 98 19 38 11 61 14 80 7 36 -13 109
-107 206 -270 47 -77 92 -147 100 -154 25 -20 20 -43 -6 -35 -62 19 -145 75
-241 163 -58 53 -126 107 -149 119 -66 33 -280 134 -308 145 -14 6 -45 12 -70
13 -152 9 -293 95 -320 195 -16 58 13 156 52 176 41 21 58 43 58 74 0 29 -21
51 -139 143 -55 43 -60 49 -49 67 7 11 16 20 21 20 17 0 85 -40 126 -74 48
-40 56 -43 65 -21 3 8 13 15 22 15 9 0 33 10 54 21 34 19 42 20 69 9 17 -7 33
-20 36 -29 8 -26 64 -64 78 -54 7 5 26 10 42 11 17 1 42 7 57 13 28 12 46 41
28 47 -13 5 -50 75 -50 97 0 23 22 18 73 -15z m-1838 -28 c0 -18 -20 -15 -23
4 -3 10 1 15 10 12 7 -3 13 -10 13 -16z m1698 -22 c14 -22 23 -40 19 -40 -9 0
-72 63 -72 72 0 21 29 4 53 -32z m-843 2 c0 -17 -41 -51 -54 -46 -8 3 -16 17
-19 30 -3 19 1 28 17 34 21 8 56 -4 56 -18z m328 -370 c16 -22 10 -36 -17 -40
-25 -4 -71 32 -71 56 0 19 70 7 88 -16z m952 -71 c0 -17 -18 -21 -24 -6 -3 9
0 15 9 15 8 0 15 -4 15 -9z m-2223 -227 c-9 -9 -28 6 -21 18 4 6 10 6 17 -1 6
-6 8 -13 4 -17z m251 -216 c19 -19 14 -30 -10 -26 -13 2 -24 11 -26 21 -4 20
18 23 36 5z m27 -168 c9 -28 -83 -206 -120 -233 -46 -33 -135 -26 -135 12 0
25 37 111 58 135 29 32 152 105 179 106 6 0 15 -9 18 -20z m705 -168 c0 -14
-24 -32 -41 -32 -24 0 -29 21 -11 42 11 13 19 15 33 7 11 -5 19 -13 19 -17z
m-330 -152 c11 -6 12 -12 4 -20 -13 -13 -44 -2 -44 16 0 16 18 18 40 4z m-560
-55 c0 -8 -7 -15 -15 -15 -16 0 -20 12 -8 23 11 12 23 8 23 -8z m-190 -85 c0
-5 -7 -10 -16 -10 -8 0 -12 5 -9 10 3 6 10 10 16 10 5 0 9 -4 9 -10z m990
-120 c0 -11 -4 -20 -10 -20 -5 0 -10 9 -10 20 0 11 5 20 10 20 6 0 10 -9 10
-20z m-2642 -85 c17 -38 15 -63 -10 -97 l-21 -31 -19 23 c-14 17 -17 32 -12
59 13 73 41 93 62 46z m3859 14 c29 -10 103 -76 103 -91 0 -9 -49 0 -65 12
-10 8 -47 13 -72 11 -6 -1 -16 -16 -23 -35 -14 -42 -44 -71 -66 -62 -13 5 -16
18 -12 75 2 38 10 76 17 85 16 19 75 21 118 5z m-1708 -151 c-20 -38 -59 -53
-59 -24 0 17 37 46 58 46 10 0 10 -5 1 -22z m2741 2 c9 -16 8 -20 -5 -20 -8 0
-15 9 -15 20 0 11 2 20 5 20 2 0 9 -9 15 -20z m-3810 -26 c65 -19 114 -66 107
-102 -3 -16 2 -27 14 -35 23 -14 24 -29 3 -74 -24 -49 -111 -91 -217 -105
-130 -16 -140 -16 -184 3 -50 21 -72 59 -66 111 4 32 10 39 39 48 50 17 90 5
103 -31 17 -49 72 -32 87 27 9 35 -9 70 -46 89 -25 13 -29 19 -21 34 27 50 89
62 181 35z m919 -53 c20 -28 20 -30 3 -51 -16 -19 -22 -21 -40 -11 -16 8 -22
21 -22 45 0 55 27 63 59 17z m1852 -3 c10 -19 7 -26 -25 -55 -55 -51 -75 -26
-35 41 24 41 43 46 60 14z m-3151 -13 c-7 -8 -17 -15 -23 -15 -5 0 -2 9 8 20
21 23 35 19 15 -5z m1488 -47 c13 -13 17 -48 5 -48 -15 0 -41 33 -36 46 6 17
15 18 31 2z m1908 -4 c83 -28 124 -62 166 -139 29 -54 38 -79 36 -110 -3 -38
-1 -40 27 -43 17 -2 37 -10 46 -18 15 -13 14 -19 -7 -62 -13 -26 -30 -71 -39
-99 -9 -31 -21 -53 -29 -53 -23 0 -65 58 -71 98 -16 101 -35 142 -96 205 -56
57 -123 76 -186 53 -16 -6 -93 24 -93 37 0 19 34 36 48 25 9 -8 16 -8 24 0 11
11 4 46 -18 99 -11 25 122 30 192 7z m-3136 -309 c0 -19 -20 -29 -32 -17 -15
15 -2 43 17 36 8 -3 15 -12 15 -19z m-468 -106 c41 -80 10 -196 -45 -168 -54
28 -87 61 -98 99 -15 51 -1 86 43 104 44 19 80 7 100 -35z m650 -16 c22 -20
24 -69 2 -77 -23 -9 -32 0 -40 39 -9 52 5 68 38 38z m3708 -54 c0 -6 -4 -7
-10 -4 -5 3 -10 11 -10 16 0 6 5 7 10 4 6 -3 10 -11 10 -16z m-3547 -11 c8
-12 7 -21 -3 -33 -13 -16 -15 -16 -27 1 -19 26 -17 56 3 52 9 -2 22 -10 27
-20z m291 -400 c12 -20 1 -48 -18 -48 -19 0 -49 57 -42 77 6 13 9 14 28 1 12
-8 26 -22 32 -30z m119 -136 c11 -18 17 -36 13 -39 -11 -11 -61 33 -64 56 -5
34 28 23 51 -17z m-692 -22 c24 -20 24 -20 4 -35 -29 -23 -50 -15 -53 23 -4
38 14 42 49 12z m343 -302 c9 -12 16 -31 16 -42 0 -20 0 -20 -19 -1 -23 24
-37 65 -22 65 5 0 17 -10 25 -22z m-632 -150 c14 -22 33 -108 24 -108 -31 0
-66 50 -66 93 0 42 20 49 42 15z m838 -69 c0 -24 -23 -21 -28 4 -2 10 3 17 12
17 10 0 16 -9 16 -21z m-365 -145 c12 -18 12 -24 2 -24 -7 0 -21 13 -30 30
-15 24 -15 29 -3 24 8 -3 22 -17 31 -30z m488 -310 c-3 -9 -21 -14 -46 -14
l-40 0 22 24 c19 21 27 23 46 14 14 -6 21 -16 18 -24z"/>
<path d="M2301 5067 c-9 -11 -8 -17 4 -27 12 -10 16 -9 21 5 9 23 -10 40 -25
22z"/>
<path d="M2791 5071 c-15 -10 -8 -41 9 -41 15 0 25 29 14 40 -5 5 -15 5 -23 1z"/>
<path d="M4203 4884 c-7 -18 11 -39 25 -30 12 7 4 46 -9 46 -6 0 -12 -7 -16
-16z"/>
<path d="M2859 2637 c-31 -24 -37 -48 -20 -79 15 -27 19 -29 60 -24 84 11 145
71 104 101 -22 18 -122 19 -144 2z"/>
<path d="M3227 2626 c-6 -16 16 -40 26 -29 4 3 7 15 7 25 0 21 -25 24 -33 4z"/>
<path d="M5484 2449 c-8 -14 11 -33 25 -25 16 10 13 36 -3 36 -8 0 -18 -5 -22
-11z"/>
<path d="M5085 2320 c-7 -12 12 -40 26 -40 5 0 9 11 9 25 0 25 -23 35 -35 15z"/>
<path d="M303 2004 c-8 -21 13 -42 28 -27 13 13 5 43 -11 43 -6 0 -13 -7 -17
-16z"/>
<path d="M5101 1956 c-12 -13 -21 -30 -19 -37 3 -15 36 -38 55 -39 17 0 32 61
21 83 -12 23 -30 21 -57 -7z"/>
<path d="M420 1925 c0 -44 37 -145 56 -152 8 -3 21 3 29 13 32 43 6 156 -38
168 -41 11 -47 7 -47 -29z"/>
<path d="M747 1425 c-8 -18 11 -31 25 -17 11 11 3 32 -12 32 -4 0 -10 -7 -13
-15z"/>
<path d="M4809 1122 c-12 -11 -24 -29 -26 -41 -3 -20 0 -21 40 -15 61 8 67 11
67 32 0 42 -43 54 -81 24z"/>
<path d="M2347 1083 c-13 -12 -7 -33 8 -33 8 0 15 9 15 20 0 20 -11 26 -23 13z"/>
<path d="M2167 993 c-13 -12 -7 -33 8 -33 8 0 15 9 15 20 0 20 -11 26 -23 13z"/>
<path d="M4777 986 c-7 -16 1 -26 20 -26 7 0 13 9 13 20 0 23 -25 27 -33 6z"/>
<path d="M1847 943 c-4 -3 -7 -16 -7 -28 0 -33 57 -72 124 -84 86 -16 99 0 44
51 -52 49 -140 82 -161 61z"/>
<path d="M2180 634 c0 -14 45 -80 65 -94 11 -8 36 -29 55 -46 46 -41 63 -36
46 14 -8 24 -20 38 -33 40 -11 2 -39 23 -63 47 -39 40 -70 57 -70 39z"/>
<path d="M1870 596 c-28 -28 16 -85 62 -82 50 2 21 92 -30 92 -12 0 -27 -5
-32 -10z"/>
<path d="M2080 544 c-9 -10 -10 -18 -2 -26 12 -12 32 -2 32 17 0 21 -16 26
-30 9z"/>
<path d="M4398 478 c-33 -36 -24 -47 22 -28 29 12 45 35 34 51 -10 16 -25 10
-56 -23z"/>
<path d="M2440 429 c-13 -8 -10 -14 15 -34 29 -24 124 -59 134 -50 2 3 -1 15
-6 28 -17 37 -114 75 -143 56z"/>
</g>
</svg>
